<?xml version="1.0" encoding="UTF-8"?>
<svg width="172px" height="101px" viewBox="0 0 172 101" version="1.1" xmlns="http://www.w3.org/2000/svg" xmlns:xlink="http://www.w3.org/1999/xlink">
    <title>Group 3</title>
    <g id="Welcome" stroke="none" stroke-width="1" fill="none" fill-rule="evenodd">
        <g id="Desktop-HD" transform="translate(-634.000000, -117.000000)" stroke="#E75613" stroke-width="10">
            <g id="Group-3" transform="translate(634.000000, 122.000000)">
                <path d="M119.775518,43.2557912 L134.93071,18.8799678 C142.230374,7.1390864 155.075365,2.53962966e-15 168.900465,0 L171.893896,0 L171.893896,0" id="Path-4"></path>
                <path d="M32,91 C45.7380283,91 58.5021204,83.9058762 65.7558104,72.2389398 L98.9307101,18.8799678 C106.230374,7.1390864 119.075365,2.53962966e-15 132.900465,0 L171.893896,0 L171.893896,0" id="Path-4" transform="translate(101.946948, 45.500000) scale(-1, 1) translate(-101.946948, -45.500000) "></path>
                <path d="M-2.84217094e-14,91 L31.8599841,91 C45.6850841,91 58.530075,83.8609136 65.8297389,72.1200322 L79.7436576,49.7406911 L79.7436576,49.7406911 L98.9307101,18.8799678 C106.230374,7.1390864 119.075365,-2.39503805e-14 132.900465,0 L171.893896,0 L171.893896,0" id="Path-4" transform="translate(85.946948, 45.500000) scale(-1, 1) translate(-85.946948, -45.500000) "></path>
                <path d="M1.80477855e-12,91 L32,91 L63.8599841,91 C77.6850841,91 90.530075,83.8609136 97.8297389,72.1200322 L130.93071,18.8799678 C138.230374,7.1390864 151.075365,-1.80934435e-12 164.900465,-1.8189894e-12 L171.893896,-1.8189894e-12 L171.893896,-1.8189894e-12" id="Path-4" transform="translate(85.946948, 45.500000) scale(-1, 1) translate(-85.946948, -45.500000) "></path>
            </g>
        </g>
    </g>
</svg>